<?xml version="1.0" encoding="UTF-8" standalone="no"?>
<!DOCTYPE svg PUBLIC "-//W3C//DTD SVG 1.1//EN"
 "http://www.w3.org/Graphics/SVG/1.1/DTD/svg11.dtd">
<!-- Generated by graphviz version 2.43.0 (0)
 -->
<!-- Title: %3 Pages: 1 -->
<svg width="332pt" height="116pt"
 viewBox="0.00 0.00 332.30 116.00" xmlns="http://www.w3.org/2000/svg" xmlns:xlink="http://www.w3.org/1999/xlink">
<g id="graph0" class="graph" transform="scale(1 1) rotate(0) translate(4 112)">
<title>%3</title>
<polygon fill="white" stroke="transparent" points="-4,4 -4,-112 328.3,-112 328.3,4 -4,4"/>
<!-- Jonathan -->
<g id="node1" class="node">
<title>Jonathan</title>
<g id="a_node1"><a xlink:title="Lorem ipusm">
<polygon fill="none" stroke="black" points="149.5,-108 69.5,-108 69.5,-72 149.5,-72 149.5,-108"/>
<text text-anchor="middle" x="109.5" y="-86.3" font-family="Times,serif" font-size="14.00">Jonathan</text>
</a>
</g>
</g>
<!-- Sara -->
<g id="node2" class="node">
<title>Sara</title>
<g id="a_node2"><a xlink:title="Lorem ipusm">
<ellipse fill="none" stroke="black" cx="199.5" cy="-90" rx="32.49" ry="18"/>
<text text-anchor="middle" x="199.5" y="-86.3" font-family="Times,serif" font-size="14.00">Sara</text>
</a>
</g>
</g>
<!-- Jonathan&#45;&gt;Sara -->
<g id="edge1" class="edge">
<title>Jonathan&#45;&gt;Sara</title>
<path fill="none" stroke="black" d="M149.76,-88C155.47,-88 161.28,-88 166.83,-88"/>
<path fill="none" stroke="transparent" d="M149.76,-90C155.47,-90 161.28,-90 166.83,-90"/>
<path fill="none" stroke="black" d="M149.76,-92C155.47,-92 161.28,-92 166.83,-92"/>
</g>
<!-- Henry -->
<g id="node3" class="node">
<title>Henry</title>
<g id="a_node3"><a xlink:title="Lorem ipusm">
<polygon fill="none" stroke="black" points="61,-36 0,-36 0,0 61,0 61,-36"/>
<text text-anchor="middle" x="30.5" y="-14.3" font-family="Times,serif" font-size="14.00">Henry</text>
</a>
</g>
</g>
<!-- Jonathan&#45;&gt;Henry -->
<g id="edge2" class="edge">
<title>Jonathan&#45;&gt;Henry</title>
<path fill="none" stroke="black" d="M74.23,-71.83C74.23,-50.5 74.23,-18 74.23,-18 74.23,-18 71.34,-18 71.34,-18"/>
<polygon fill="black" stroke="black" points="71.34,-14.5 61.34,-18 71.34,-21.5 71.34,-14.5"/>
</g>
<!-- Jane -->
<g id="node4" class="node">
<title>Jane</title>
<g id="a_node4"><a xlink:title="Lorem ipusm">
<ellipse fill="none" stroke="black" cx="109.5" cy="-18" rx="30.59" ry="18"/>
<text text-anchor="middle" x="109.5" y="-14.3" font-family="Times,serif" font-size="14.00">Jane</text>
</a>
</g>
</g>
<!-- Jonathan&#45;&gt;Jane -->
<g id="edge3" class="edge">
<title>Jonathan&#45;&gt;Jane</title>
<path fill="none" stroke="black" d="M109.5,-71.83C109.5,-71.83 109.5,-46.41 109.5,-46.41"/>
<polygon fill="black" stroke="black" points="113,-46.41 109.5,-36.41 106,-46.41 113,-46.41"/>
</g>
<!-- Hannah -->
<g id="node5" class="node">
<title>Hannah</title>
<g id="a_node5"><a xlink:title="Lorem ipusm">
<ellipse fill="none" stroke="black" cx="277.5" cy="-18" rx="46.59" ry="18"/>
<text text-anchor="middle" x="277.5" y="-14.3" font-family="Times,serif" font-size="14.00">Hannah</text>
</a>
</g>
</g>
<!-- Jonathan&#45;&gt;Hannah -->
<g id="edge4" class="edge">
<title>Jonathan&#45;&gt;Hannah</title>
<path fill="none" stroke="black" d="M144.77,-71.58C144.77,-62.72 144.77,-54 144.77,-54 144.77,-54 278.15,-54 278.15,-54 278.15,-54 278.15,-46 278.15,-46"/>
<polygon fill="black" stroke="black" points="281.65,-46 278.15,-36 274.65,-46 281.65,-46"/>
</g>
<!-- Erik -->
<g id="node6" class="node">
<title>Erik</title>
<g id="a_node6"><a xlink:title="Lorem ipusm">
<polygon fill="none" stroke="black" points="212.5,-36 158.5,-36 158.5,0 212.5,0 212.5,-36"/>
<text text-anchor="middle" x="185.5" y="-14.3" font-family="Times,serif" font-size="14.00">Erik</text>
</a>
</g>
</g>
<!-- Jane&#45;&gt;Erik -->
<g id="edge5" class="edge">
<title>Jane&#45;&gt;Erik</title>
<path fill="none" stroke="black" d="M140.41,-16C146.33,-16 152.49,-16 158.28,-16"/>
<path fill="none" stroke="transparent" d="M140.41,-18C146.33,-18 152.49,-18 158.28,-18"/>
<path fill="none" stroke="black" d="M140.41,-20C146.33,-20 152.49,-20 158.28,-20"/>
</g>
</g>
</svg>
